<svg width="40" height="40" viewBox="0 0 40 40" fill="none" xmlns="http://www.w3.org/2000/svg">
<g clip-path="url(#clip0)">
<path d="M33.0041 3.1845L36.3403 8.37405L33.7286 12.7548L33.2232 13.5973L33.4085 14.5577L35.1608 23.3024L20.3335 36.6133L5.50622 23.3024L7.25853 14.5577L7.44388 13.5973L6.9384 12.7548L4.32677 8.37405L7.66292 3.1845L12.8862 5.45914L14.0151 5.94777L15.0934 5.35805L16.93 4.39764H20.3841H23.8381L25.5905 5.35805L26.6688 5.94777L27.7977 5.45914L33.0041 3.1845ZM33.9645 0L26.7699 3.13395L24.4447 1.87026H20.3504H16.2897L13.9645 3.13395L6.78676 0L1.42871 8.30666L4.83225 14.0354L2.7935 24.1955L20.3841 40L37.9746 24.1955L35.9359 14.0354L39.3394 8.30666L33.9645 0Z" fill="#FB0707"/>
<path d="M15.6157 11.3564H14.8069H14.015L13.5264 12.3842L14.015 13.4626H14.8069H15.6157L16.1043 12.3842L15.6157 11.3564Z" fill="#FB0707"/>
<path d="M26.7363 11.3564H25.9275H25.1356L24.647 12.3842L25.1356 13.4626H25.9275H26.7363L27.2249 12.3842L26.7363 11.3564Z" fill="#FB0707"/>
<path d="M21.6645 11.3564H20.3671H19.0697L16.02 18.1298L17.7723 22.4769H20.3671H22.9619L24.7142 18.1298L21.6645 11.3564ZM22.844 19.8316L21.5297 19.2082L21.2938 20.455H20.3671H19.4573L19.2214 19.2082L17.9071 19.8316L17.1826 18.332L18.1936 16.3944H20.384H22.5744L23.5853 18.332L22.844 19.8316Z" fill="#FB0707"/>
</g>
<defs>
<clipPath id="clip0">
<rect width="37.8939" height="40" fill="white" transform="translate(1.42871)"/>
</clipPath>
</defs>
</svg>
